<svg id="Livello_5" data-name="Livello 5" xmlns="http://www.w3.org/2000/svg" viewBox="0 0 145.94 119">
  <defs>
    <style>
      .cls-1 {
        fill: #c31a19;
      }
    </style>
  </defs>
  <g>
    <polygon class="cls-1" points="77.46 119 77.46 119 77.46 119 77.46 119"/>
    <path class="cls-1" d="M294,301.29c4.18-1.81,4-8.16,4-8.16h0c7.62-3.27,6.35-14.34,6.35-14.34h0s-1.09-5.09,2.36-8.53-.36-8.54-.36-8.54h0c10.52,0,17.6-6.53,21.62-11.55,4.45-5.57,7.91-13.95,10-20,6.72-19.92,16.51-22.08,16.51-22.08h0c-12.91-.43-21.06,13.28-23.91,18.92a47.52,47.52,0,0,1-4.39,7.09c-13.44,18-22.34,14.22-22.34,14.22h0c.73-1.27-1.08-2-1.08-2a37.15,37.15,0,0,0-15.93-3.24c-1.61.05-3.21.05-4.81,0A37.12,37.12,0,0,0,266,246.3s-1.81.72-1.09,2h0S256,252,242.58,234.07a49.23,49.23,0,0,1-4.39-7.09c-2.84-5.64-11-19.35-23.91-18.92,0,0,9.79,2.16,16.52,22.08,2,6.08,5.5,14.46,10,20,4,5,11.1,11.51,21.62,11.55h0s-3.81,5.09-.36,8.54,2.36,8.53,2.36,8.53h0s-1.27,11.07,6.35,14.34h0s-.18,6.35,4,8.16h0s-.13,5.4,6.81,6.88a13.36,13.36,0,0,0,5.63,0c6.94-1.48,6.8-6.88,6.8-6.88Z" transform="translate(-211.37 -208.05)"/>
    <path class="cls-1" d="M339.46,260.21c3.76-6.06,6.19-14.79,7.5-21.07,2.52-12.07,6.83-18.4,10-21.32h0c-3.51,1.53-10.09,6.33-16.11,19.52-2.66,5.84-6.94,13.82-11.94,18.91a32.49,32.49,0,0,1-11.8,7.9h0c.11.24.22.48.32.73a35.45,35.45,0,0,1,2.61,9.3h0C330.07,272.68,336.14,265.57,339.46,260.21Z" transform="translate(-211.37 -208.05)"/>
    <path class="cls-1" d="M348.89,259.54c-4.06,5-10.23,11.61-16.36,15.25a33.32,33.32,0,0,1-12,4.48l-.13.18c0,.14,0,.27,0,.4a36.28,36.28,0,0,1-1.42,9.45h0c8.12-.43,14.39-4.87,18.34-8.58,5.2-4.88,9.81-12.69,12.7-18.42A55.48,55.48,0,0,1,357.31,251h0A57.59,57.59,0,0,0,348.89,259.54Z" transform="translate(-211.37 -208.05)"/>
    <path class="cls-1" d="M317,294.39c0,.1-.09.2-.14.31a36.27,36.27,0,0,1-5,7.74h0a32,32,0,0,0,14.73-3.54c6.4-3.15,13.09-9.26,17.53-13.89,1-1,1.94-2,2.87-2.82-4.75,3.76-10.94,8-16.68,10.09A33.14,33.14,0,0,1,317,294.39Z" transform="translate(-211.37 -208.05)"/>
    <path class="cls-1" d="M308.05,306.37l0,0a36.74,36.74,0,0,1-7.94,5.29h0c6.26,2.26,12.56,1.66,17.12.66a52.91,52.91,0,0,0,12-4.59h0a39.88,39.88,0,0,1-4.07.79C320.49,309.17,314.12,309.22,308.05,306.37Z" transform="translate(-211.37 -208.05)"/>
    <path class="cls-1" d="M294.88,313.76h0a36,36,0,0,1-9.62,1.58h0A31.24,31.24,0,0,0,300,322.88a39,39,0,0,0,5.51.83h0A27.74,27.74,0,0,1,294.88,313.76Z" transform="translate(-211.37 -208.05)"/>
    <polygon class="cls-1" points="68.49 119 68.49 119 68.48 119 68.49 119"/>
    <path class="cls-1" d="M251.62,264.15h0a32.49,32.49,0,0,1-11.8-7.9c-5-5.09-9.29-13.07-11.95-18.91-6-13.19-12.6-18-16.11-19.52h0c3.14,2.92,7.44,9.25,10,21.32,1.31,6.28,3.74,15,7.49,21.07,3.32,5.36,9.4,12.47,19.46,14h0a35.84,35.84,0,0,1,2.61-9.3C251.4,264.63,251.5,264.39,251.62,264.15Z" transform="translate(-211.37 -208.05)"/>
    <path class="cls-1" d="M231.41,280.72c4,3.71,10.23,8.15,18.35,8.58h0a36.28,36.28,0,0,1-1.42-9.45c0-.13,0-.26,0-.4l-.13-.18a33.25,33.25,0,0,1-12.05-4.48c-6.13-3.64-12.31-10.28-16.36-15.25a57.6,57.6,0,0,0-8.43-8.52h0a55,55,0,0,1,7.35,11.28C221.61,268,226.21,275.84,231.41,280.72Z" transform="translate(-211.37 -208.05)"/>
    <path class="cls-1" d="M256.78,302.44h0a35.84,35.84,0,0,1-5-7.74c-.05-.11-.1-.21-.14-.31a33.08,33.08,0,0,1-13.33-2.11c-5.74-2.09-11.93-6.33-16.68-10.09.93.86,1.89,1.8,2.86,2.82,4.45,4.63,11.14,10.74,17.54,13.89A32,32,0,0,0,256.78,302.44Z" transform="translate(-211.37 -208.05)"/>
    <path class="cls-1" d="M260.67,306.41l0,0c-6.06,2.85-12.44,2.8-17.09,2.19a39.36,39.36,0,0,1-4.07-.79h0a52.91,52.91,0,0,0,12,4.59c4.56,1,10.86,1.6,17.11-.66h0A36.68,36.68,0,0,1,260.67,306.41Z" transform="translate(-211.37 -208.05)"/>
    <path class="cls-1" d="M273.8,313.76a27.74,27.74,0,0,1-10.67,9.95h0a39.36,39.36,0,0,0,5.52-.83,31.16,31.16,0,0,0,14.77-7.54h0a35.92,35.92,0,0,1-9.61-1.58Z" transform="translate(-211.37 -208.05)"/>
  </g>
</svg>
