<svg id="Livello_4" data-name="Livello 4" xmlns="http://www.w3.org/2000/svg" viewBox="0 0 298.01 59.97">
  <defs>
    <style>
      .cls-1 {
        fill: #c41a1a;
      }
    </style>
  </defs>
  <g>
    <g>
      <polygon class="cls-1" points="39.04 59.97 39.04 59.97 39.04 59.97 39.04 59.97"/>
      <path class="cls-1" d="M311.87,338c2.1-.91,2-4.11,2-4.11h0c3.84-1.65,3.2-7.23,3.2-7.23h0a5.09,5.09,0,0,1,1.19-4.3c1.74-1.74-.18-4.3-.18-4.3h0c5.3,0,8.87-3.29,10.9-5.82a35.83,35.83,0,0,0,5-10.1c3.39-10,8.32-11.12,8.32-11.12h0c-6.51-.22-10.62,6.69-12.05,9.53a23.84,23.84,0,0,1-2.21,3.57c-6.78,9.06-11.26,7.17-11.26,7.17h0c.37-.64-.55-1-.55-1a18.65,18.65,0,0,0-8-1.63c-.8,0-1.61,0-2.42,0a18.68,18.68,0,0,0-8,1.63s-.91.36-.55,1h0s-4.48,1.89-11.25-7.17a24.75,24.75,0,0,1-2.22-3.57c-1.43-2.84-5.54-9.75-12.05-9.53,0,0,4.94,1.09,8.33,11.12a35.31,35.31,0,0,0,5,10.1c2,2.53,5.59,5.8,10.89,5.82h0s-1.92,2.56-.18,4.3a5.05,5.05,0,0,1,1.19,4.3h0s-.64,5.58,3.2,7.23h0s-.09,3.2,2,4.11h0s-.06,2.72,3.43,3.47a6.8,6.8,0,0,0,2.84,0c3.5-.75,3.43-3.47,3.43-3.47Z" transform="translate(-270.25 -290.96)"/>
      <path class="cls-1" d="M334.8,317.25a35.64,35.64,0,0,0,3.78-10.62c1.27-6.08,3.44-9.27,5-10.74h0c-1.77.76-5.09,3.18-8.12,9.83a35.49,35.49,0,0,1-6,9.53,16.44,16.44,0,0,1-5.94,4h0l.16.36a17.64,17.64,0,0,1,1.31,4.69h0C330.07,323.53,333.13,320,334.8,317.25Z" transform="translate(-270.25 -290.96)"/>
      <path class="cls-1" d="M339.55,316.91a35.52,35.52,0,0,1-8.24,7.69,16.89,16.89,0,0,1-6.08,2.26l-.06.08v.21a18.26,18.26,0,0,1-.72,4.76h0a14.9,14.9,0,0,0,9.25-4.33,35.26,35.26,0,0,0,6.39-9.28,27.63,27.63,0,0,1,3.71-5.68h0A28.72,28.72,0,0,0,339.55,316.91Z" transform="translate(-270.25 -290.96)"/>
      <path class="cls-1" d="M323.49,334.47c0,.06-.05.11-.07.16a18.29,18.29,0,0,1-2.51,3.9h0a16,16,0,0,0,7.42-1.79,35.42,35.42,0,0,0,8.84-7c.49-.52,1-1,1.44-1.42a33,33,0,0,1-8.4,5.08A16.45,16.45,0,0,1,323.49,334.47Z" transform="translate(-270.25 -290.96)"/>
      <path class="cls-1" d="M319,340.51l0,0a18.3,18.3,0,0,1-4,2.67h0a15.56,15.56,0,0,0,8.62.33,26.88,26.88,0,0,0,6.06-2.31h0a17.94,17.94,0,0,1-2.05.39A15.51,15.51,0,0,1,319,340.51Z" transform="translate(-270.25 -290.96)"/>
      <path class="cls-1" d="M312.33,344.23h0a17.64,17.64,0,0,1-4.84.8h0a15.66,15.66,0,0,0,7.44,3.8,18.58,18.58,0,0,0,2.78.42h0A14,14,0,0,1,312.33,344.23Z" transform="translate(-270.25 -290.96)"/>
      <polygon class="cls-1" points="34.52 59.97 34.52 59.97 34.51 59.97 34.52 59.97"/>
      <path class="cls-1" d="M290.53,319.24h0a16.4,16.4,0,0,1-5.95-4,35.49,35.49,0,0,1-6-9.53c-3-6.65-6.35-9.07-8.12-9.83h0c1.58,1.47,3.75,4.66,5,10.74a35.61,35.61,0,0,0,3.77,10.62c1.68,2.7,4.74,6.28,9.81,7h0a18,18,0,0,1,1.32-4.69C290.42,319.48,290.47,319.36,290.53,319.24Z" transform="translate(-270.25 -290.96)"/>
      <path class="cls-1" d="M280.35,327.58a14.84,14.84,0,0,0,9.24,4.33h0a17.85,17.85,0,0,1-.71-4.76,1.47,1.47,0,0,1,0-.21l-.07-.08a16.84,16.84,0,0,1-6.07-2.26,35.57,35.57,0,0,1-8.25-7.69,28.72,28.72,0,0,0-4.24-4.29h0a28.06,28.06,0,0,1,3.7,5.68A35.54,35.54,0,0,0,280.35,327.58Z" transform="translate(-270.25 -290.96)"/>
      <path class="cls-1" d="M293.13,338.53h0a18.29,18.29,0,0,1-2.51-3.9l-.07-.16a16.43,16.43,0,0,1-6.71-1.06,32.93,32.93,0,0,1-8.41-5.08c.47.43.95.9,1.44,1.42,2.25,2.33,5.62,5.41,8.84,7A16,16,0,0,0,293.13,338.53Z" transform="translate(-270.25 -290.96)"/>
      <path class="cls-1" d="M295.09,340.53l0,0a15.47,15.47,0,0,1-8.61,1.1,17.16,17.16,0,0,1-2-.39h0a26.81,26.81,0,0,0,6,2.31,15.59,15.59,0,0,0,8.63-.33h0A18.37,18.37,0,0,1,295.09,340.53Z" transform="translate(-270.25 -290.96)"/>
      <path class="cls-1" d="M301.71,344.23a14,14,0,0,1-5.38,5h0a18.38,18.38,0,0,0,2.78-.42,15.68,15.68,0,0,0,7.45-3.8h0a17.71,17.71,0,0,1-4.85-.8Z" transform="translate(-270.25 -290.96)"/>
    </g>
    <g>
      <path class="cls-1" d="M353.47,339.17v-.48c3-.54,3.34-.88,3.34-3.9V318.47c0-3.24-.27-3.44-3.34-3.93v-.48h9.62v.48c-3.1.43-3.37.69-3.37,3.93v16.31c0,3,.26,3.34,3.37,3.91v.48Z" transform="translate(-270.25 -290.96)"/>
      <path class="cls-1" d="M394.78,314.54c-2.73.61-3,1.07-3.06,3.69,0,1-.12,1.74-.12,5.15V339.6H391l-17.34-21.32v11c0,3.7.08,4.89.12,6.13.08,2.27.67,2.79,3.73,3.29v.48h-8.75v-.48c2.86-.64,3.46-1,3.54-3.32,0-1,.12-2.47.12-6.1V317.94a2.38,2.38,0,0,0-.54-1.65,5.12,5.12,0,0,0-3.51-1.75v-.48h5.57l16.51,20V323.38c0-3.41,0-4-.12-5.28-.15-2.49-.68-3.18-3.9-3.56v-.48h8.4Z" transform="translate(-270.25 -290.96)"/>
      <path class="cls-1" d="M421.62,319.53a12.9,12.9,0,0,0-.81-2.39c-.66-1.48-1.23-2.07-3.52-2.07H412.6v19.81c0,2.93.28,3.34,3.65,3.81v.48H406.16v-.48c3.35-.55,3.53-.91,3.53-3.81V315.07H404.9c-2.12,0-2.48.68-3,1.65a15.19,15.19,0,0,0-1.07,2.81h-.62c.27-2.08.46-4.21.57-6.14h.4c.48.6.74.67,2.11.67h16.27c1.11,0,1.48-.12,1.86-.67h.46c0,1.59.15,3.91.34,6Z" transform="translate(-270.25 -290.96)"/>
      <path class="cls-1" d="M446.32,333.63c-.19,1.29-.88,4.4-1.19,5.54H427.49v-.48c3.39-.46,3.63-.73,3.63-3.92v-16.1c0-3.34-.12-3.58-3.11-4.13v-.48h11c3.36,0,4.55,0,5.25-.08,0,1.36.15,4.12.27,5.28l-.54.08a14.42,14.42,0,0,0-1.24-3.08c-.73-1.06-1.22-1.15-3.5-1.15h-4.11c-1,0-1.1.12-1.1,1.18v9h4.7c2.66,0,3-.53,3.46-3.1h.51v7.29h-.51c-.65-2.67-.9-3.1-3.39-3.1H434v9.08c0,2.59,1,2.71,3.18,2.71h3.7c1.89,0,2.43-.34,3.4-1.78a15.65,15.65,0,0,0,1.51-2.85Z" transform="translate(-270.25 -290.96)"/>
      <path class="cls-1" d="M474.19,339.37c-.3,0-1.24,0-1.53,0-3.36-.19-4.17-.62-5.69-2.7-1.28-1.8-3.08-4.82-4.43-7.14-1-1.7-1.43-1.95-3.34-1.95h-1.54v7.3c0,3,.3,3.41,3.37,3.85v.48h-9.61v-.48c3-.48,3.34-.78,3.34-3.85V318.31c0-3-.27-3.31-3.34-3.77v-.48h9.32c2.67,0,4.75.42,6.15,1.43a5.62,5.62,0,0,1,2.36,4.74c0,3.22-2.2,5.39-4.94,6.59.72,1.29,2.52,4.28,3.67,6a36.23,36.23,0,0,0,3.17,4.42,4.69,4.69,0,0,0,3.15,1.65Zm-14.3-12.61c1.92,0,3-.08,4.09-.86,1.51-1.08,2-2.64,2-5,0-4.23-2.31-6.1-5.51-6.1a5,5,0,0,0-2.36.34c-.34.23-.46.57-.46,1.77v9.81Z" transform="translate(-270.25 -290.96)"/>
      <path class="cls-1" d="M500.11,333.31a35.75,35.75,0,0,1-2,5.55,28.31,28.31,0,0,1-6.42.89c-9.54,0-13.93-6.37-13.93-13.06,0-8,5.81-13.17,14.57-13.17a38.75,38.75,0,0,1,6.69.81c.19,1.79.35,3.93.58,5.52L499,320c-.71-2.39-1.32-4.07-3.48-4.9a12.81,12.81,0,0,0-4.31-.66c-6.76,0-9.94,5.46-9.94,11.58,0,7.67,3.83,12.86,10.61,12.86,4.27,0,6-2.45,7.67-5.74Z" transform="translate(-270.25 -290.96)"/>
      <path class="cls-1" d="M518.93,313.52a12.35,12.35,0,0,1,12.23,12.75c0,8.11-5.6,13.48-12.52,13.48A12.41,12.41,0,0,1,506.35,327C506.35,320,511.13,313.52,518.93,313.52Zm-.74.86c-4.42,0-8.34,4-8.34,11.5s3.85,13,9.62,13c4.5,0,8.19-3.94,8.19-11.39C527.66,319.14,523.69,314.38,518.19,314.38Z" transform="translate(-270.25 -290.96)"/>
      <path class="cls-1" d="M558.59,339.17v-.48c3-.54,3.12-.88,3.15-4.69l.12-17.09c-3.29,7-9.53,20.56-10.18,22.26h-.41c-.44-1.25-4.75-11.61-9.09-21.82-.51,14.48-.48,16.63-.48,18.18,0,2.13.58,2.77,3.51,3.16v.48h-8.43v-.48c2.66-.35,3.17-1,3.37-3.11.15-1.6.27-3.79,1-18.09.08-1.57-.09-2.57-3.56-2.95v-.48h6.12l8.87,20.05,9.63-20.05h6v.48c-3.34.5-3.61.88-3.61,4.44l.08,15c0,3.9.37,4.18,3.53,4.69v.48Z" transform="translate(-270.25 -290.96)"/>
    </g>
  </g>
</svg>
