<svg xmlns="http://www.w3.org/2000/svg" viewBox="0 0 145.08 34.6">
  <defs>
    <style>
      .cls-1 {
        font-size: 4.87px;
        font-family: Apertura-Regular, Apertura;
        letter-spacing: 0.19em;
      }

      .cls-1, .cls-5 {
        fill: #c31a19;
      }

      .cls-2 {
        letter-spacing: 0.16em;
      }

      .cls-3 {
        letter-spacing: 0.19em;
      }

      .cls-4 {
        letter-spacing: 0.16em;
      }
    </style>
  </defs>
  <g id="Livello_2" data-name="Livello 2">
    <g id="Livello_6" data-name="Livello 6">
      <g>
        <text class="cls-1" transform="translate(58.78 33)">EXPO<tspan class="cls-2" x="16.32" y="0">R</tspan><tspan class="cls-3" x="19.99" y="0">T IMPO</tspan><tspan class="cls-4" x="41.91" y="0">R</tspan><tspan x="45.59" y="0">T</tspan></text>
        <g>
          <g>
            <polygon class="cls-5" points="18.85 28.96 18.85 28.96 18.85 28.96 18.85 28.96"/>
            <path class="cls-5" d="M20.1,22.69c1-.44,1-2,1-2h0c1.86-.8,1.55-3.49,1.55-3.49h0a2.44,2.44,0,0,1,.57-2.08c.84-.84-.08-2.08-.08-2.08h0a6.82,6.82,0,0,0,5.26-2.81,17.18,17.18,0,0,0,2.42-4.87c1.64-4.85,4-5.38,4-5.38h0C31.67-.1,29.69,3.23,29,4.61a11,11,0,0,1-1.07,1.72c-3.27,4.38-5.43,3.46-5.43,3.46h0c.17-.31-.27-.48-.27-.48a9.05,9.05,0,0,0-3.87-.79H17.18a9.07,9.07,0,0,0-3.88.79s-.44.17-.27.48h0s-2.16.92-5.43-3.46A11,11,0,0,1,6.53,4.61C5.84,3.23,3.85-.1.71,0c0,0,2.38.53,4,5.38a17.18,17.18,0,0,0,2.42,4.87,6.82,6.82,0,0,0,5.27,2.81h0s-.93,1.24-.09,2.08a2.44,2.44,0,0,1,.57,2.08h0s-.31,2.69,1.55,3.49h0s0,1.54,1,2h0s0,1.32,1.66,1.68a3.17,3.17,0,0,0,1.37,0c1.68-.36,1.65-1.68,1.65-1.68Z"/>
            <path class="cls-5" d="M31.18,12.7A17.44,17.44,0,0,0,33,7.57c.61-2.94,1.66-4.48,2.43-5.19h0c-.86.37-2.46,1.54-3.93,4.75a17.15,17.15,0,0,1-2.9,4.6,8,8,0,0,1-2.87,1.92h0l.07.18a8.62,8.62,0,0,1,.64,2.26h0A6.85,6.85,0,0,0,31.18,12.7Z"/>
            <path class="cls-5" d="M33.47,12.53a17,17,0,0,1-4,3.71,8.07,8.07,0,0,1-2.93,1.09l0,.05a.27.27,0,0,1,0,.09,8.7,8.7,0,0,1-.34,2.3h0a7.17,7.17,0,0,0,4.46-2.08,16.93,16.93,0,0,0,3.09-4.49,13.82,13.82,0,0,1,1.79-2.74h0A13.37,13.37,0,0,0,33.47,12.53Z"/>
            <path class="cls-5" d="M25.71,21l0,.08A8.62,8.62,0,0,1,24.47,23h0a7.69,7.69,0,0,0,3.58-.86,16.92,16.92,0,0,0,4.27-3.38c.24-.25.47-.48.7-.69A15.9,15.9,0,0,1,29,20.5,8,8,0,0,1,25.71,21Z"/>
            <path class="cls-5" d="M23.53,23.93h0a9,9,0,0,1-1.93,1.29h0a7.6,7.6,0,0,0,4.17.16,13,13,0,0,0,2.92-1.12h0a9.06,9.06,0,0,1-1,.19A7.53,7.53,0,0,1,23.53,23.93Z"/>
            <path class="cls-5" d="M20.33,25.73h0a8.69,8.69,0,0,1-2.35.38h0A7.65,7.65,0,0,0,21.58,28a9.39,9.39,0,0,0,1.34.2h0A6.74,6.74,0,0,1,20.33,25.73Z"/>
            <polygon class="cls-5" points="16.67 28.96 16.67 28.96 16.67 28.96 16.67 28.96"/>
            <path class="cls-5" d="M9.79,13.65h0a8.05,8.05,0,0,1-2.87-1.92A17.15,17.15,0,0,1,4,7.13C2.55,3.92,1,2.75.1,2.38h0c.76.71,1.81,2.25,2.42,5.19A17.44,17.44,0,0,0,4.34,12.7a6.85,6.85,0,0,0,4.74,3.39h0a8.62,8.62,0,0,1,.64-2.26Z"/>
            <path class="cls-5" d="M4.88,17.69a7.17,7.17,0,0,0,4.46,2.08h0A8.7,8.7,0,0,1,9,17.47v-.09l0-.05A8.13,8.13,0,0,1,6,16.24a17,17,0,0,1-4-3.71,13.37,13.37,0,0,0-2-2.07H0A13.39,13.39,0,0,1,1.79,13.2,16.93,16.93,0,0,0,4.88,17.69Z"/>
            <path class="cls-5" d="M11.05,23h0a8.62,8.62,0,0,1-1.21-1.88l0-.08a8,8,0,0,1-3.25-.51A16.08,16.08,0,0,1,2.5,18c.23.21.46.44.7.69a16.92,16.92,0,0,0,4.27,3.38A7.69,7.69,0,0,0,11.05,23Z"/>
            <path class="cls-5" d="M12,23.94h0a7.53,7.53,0,0,1-4.16.53,9.54,9.54,0,0,1-1-.19h0a13,13,0,0,0,2.92,1.12,7.6,7.6,0,0,0,4.17-.16h0A9,9,0,0,1,12,23.94Z"/>
            <path class="cls-5" d="M15.2,25.73a6.83,6.83,0,0,1-2.6,2.42h0a9.18,9.18,0,0,0,1.34-.2,7.6,7.6,0,0,0,3.6-1.84h0a8.55,8.55,0,0,1-2.34-.38Z"/>
          </g>
          <g>
            <path class="cls-5" d="M40.19,23.28v-.23c1.47-.26,1.61-.43,1.61-1.89V13.29c0-1.56-.13-1.66-1.61-1.9v-.23h4.65v.23c-1.5.21-1.63.33-1.63,1.9v7.87c0,1.45.13,1.61,1.63,1.89v.23Z"/>
            <path class="cls-5" d="M60.14,11.39c-1.32.29-1.44.52-1.48,1.78,0,.5-.06.84-.06,2.49v7.83h-.31L49.92,13.2v5.3c0,1.79,0,2.36,0,3,0,1.1.33,1.35,1.81,1.59v.23H47.55v-.23c1.38-.31,1.67-.49,1.71-1.6,0-.5.06-1.2.06-2.95V13a1.19,1.19,0,0,0-.26-.8,2.51,2.51,0,0,0-1.7-.84v-.23h2.69l8,9.65V15.66c0-1.65,0-1.93-.05-2.55-.08-1.2-.34-1.53-1.89-1.72v-.23h4.06Z"/>
            <path class="cls-5" d="M73.1,13.8a6.49,6.49,0,0,0-.39-1.16c-.32-.71-.59-1-1.7-1H68.75v9.56c0,1.41.13,1.61,1.76,1.84v.23H65.64v-.23c1.62-.27,1.7-.44,1.7-1.84V11.65H65c-1,0-1.2.32-1.46.79a7,7,0,0,0-.51,1.36h-.3c.12-1,.22-2,.27-3h.19c.24.29.36.33,1,.33H72.1c.53,0,.71-.06.89-.33h.23c0,.78.07,1.89.16,2.91Z"/>
            <path class="cls-5" d="M85,20.61c-.09.62-.43,2.12-.57,2.67H75.94v-.23c1.64-.22,1.75-.35,1.75-1.89V13.38c0-1.61-.06-1.72-1.5-2v-.23H81.5c1.62,0,2.19,0,2.53,0,0,.66.07,2,.13,2.55l-.26,0a6.61,6.61,0,0,0-.6-1.49c-.35-.51-.59-.55-1.69-.55h-2c-.5,0-.54.05-.54.56v4.34h2.28c1.28,0,1.44-.25,1.67-1.5h.24v3.52H83c-.32-1.29-.44-1.49-1.64-1.49H79.09v4.38c0,1.25.49,1.31,1.54,1.31h1.79a1.55,1.55,0,0,0,1.64-.86,8.15,8.15,0,0,0,.73-1.38Z"/>
            <path class="cls-5" d="M98.49,23.38c-.15,0-.6,0-.74,0-1.62-.09-2-.3-2.75-1.31s-1.49-2.32-2.13-3.44c-.48-.82-.69-.94-1.62-.94h-.74v3.52c0,1.45.14,1.65,1.63,1.86v.23H87.5v-.23c1.44-.23,1.61-.38,1.61-1.86v-8c0-1.44-.13-1.6-1.61-1.82v-.23H92a5.08,5.08,0,0,1,3,.69,2.71,2.71,0,0,1,1.13,2.29,3.52,3.52,0,0,1-2.38,3.18c.34.62,1.21,2.06,1.77,2.9A17.13,17.13,0,0,0,97,22.36a2.28,2.28,0,0,0,1.52.79Zm-6.91-6.09a3,3,0,0,0,2-.42,2.61,2.61,0,0,0,1-2.39c0-2-1.12-2.94-2.66-2.94a2.51,2.51,0,0,0-1.14.16c-.16.11-.22.28-.22.85v4.74Z"/>
            <path class="cls-5" d="M111,20.45a17.17,17.17,0,0,1-1,2.68,13.52,13.52,0,0,1-3.1.43c-4.61,0-6.73-3.07-6.73-6.3,0-3.88,2.81-6.36,7-6.36a19.1,19.1,0,0,1,3.23.39c.09.86.16,1.9.28,2.66l-.31.06c-.33-1.15-.63-2-1.67-2.36a6.15,6.15,0,0,0-2.09-.32c-3.26,0-4.79,2.63-4.79,5.59,0,3.7,1.85,6.21,5.12,6.21,2.06,0,2.91-1.18,3.7-2.77Z"/>
            <path class="cls-5" d="M120.1,10.9a6,6,0,0,1,5.9,6.16c0,3.91-2.7,6.5-6,6.5A6,6,0,0,1,114,17.4C114,14,116.33,10.9,120.1,10.9Zm-.36.41c-2.14,0-4,1.93-4,5.56s1.86,6.26,4.65,6.26c2.17,0,4-1.9,4-5.5C124.31,13.61,122.39,11.31,119.74,11.31Z"/>
            <path class="cls-5" d="M139.25,23.28v-.23c1.46-.26,1.5-.43,1.52-2.26l.06-8.26c-1.59,3.39-4.6,9.93-4.92,10.75h-.19c-.22-.6-2.3-5.61-4.39-10.53-.25,7-.24,8-.23,8.78,0,1,.27,1.33,1.69,1.52v.23h-4.07v-.23c1.29-.17,1.53-.5,1.62-1.5.08-.77.14-1.83.5-8.74,0-.75-.05-1.24-1.72-1.42v-.23h3l4.28,9.68L141,11.16h2.9v.23c-1.61.24-1.74.43-1.74,2.14l0,7.26c0,1.88.18,2,1.7,2.26v.23Z"/>
          </g>
        </g>
      </g>
    </g>
  </g>
</svg>
